<svg xmlns="http://www.w3.org/2000/svg" viewBox="0 0 512 512" role="img" aria-label="Bangumi Torrent Finder">
  <rect width="512" height="512" rx="96" fill="#0f766e"/>
  <path fill="#ffffff" d="M128 142h256c22 0 40 18 40 40v148c0 22-18 40-40 40H128c-22 0-40-18-40-40V182c0-22 18-40 40-40Zm16 64v100c0 8 6 14 14 14h196c8 0 14-6 14-14V206c0-8-6-14-14-14H158c-8 0-14 6-14 14Zm59 44c0-23 19-42 42-42h72v32h-72c-5 0-10 5-10 10s5 10 10 10h72v32h-72c-23 0-42-19-42-42Z"/>
  <path fill="#f97316" d="M103 398h306c10 0 18 8 18 18s-8 18-18 18H103c-10 0-18-8-18-18s8-18 18-18Z"/>
</svg>
